<?xml version="1.0" standalone="no"?><!DOCTYPE svg PUBLIC "-//W3C//DTD SVG 1.1//EN" "http://www.w3.org/Graphics/SVG/1.1/DTD/svg11.dtd"><svg t="1666702256306" class="icon" viewBox="0 0 1024 1024" version="1.1" xmlns="http://www.w3.org/2000/svg" p-id="5525" xmlns:xlink="http://www.w3.org/1999/xlink" width="20" height="20"><path d="M99.01 99.23H928v828.99H99.01z" fill-opacity=".01" p-id="5526" fill="#e50914"></path><path d="M560.6 893.68h-94.2c-19.08 0-34.54-15.45-34.54-34.54v-55.12c-23-6.44-45.03-15.55-65.86-27.29l-39.01 38.99c-13.49 13.49-35.35 13.49-48.84 0l-66.62-66.62c-13.49-13.49-13.49-35.35 0-48.84l38.99-38.99a296.758 296.758 0 0 1-27.29-65.88H168.1c-19.08 0-34.54-15.45-34.54-34.54v-94.21c0-19.09 15.47-34.54 34.54-34.54h55.13c6.43-23 15.55-45.03 27.29-65.88l-38.99-38.99c-13.49-13.49-13.49-35.35 0-48.84l66.62-66.62c13.49-13.49 35.35-13.49 48.84 0L366 250.75c20.85-11.74 42.86-20.88 65.86-27.29v-55.15c0-19.09 15.47-34.54 34.54-34.54h94.2c19.08 0 34.54 15.45 34.54 34.54v55.15c23.01 6.41 45.01 15.55 65.86 27.29l39.01-38.99c13.49-13.49 35.35-13.49 48.84 0l66.62 66.62c13.49 13.49 13.49 35.35 0 48.84l-38.99 38.99a296.758 296.758 0 0 1 27.29 65.88h55.15c19.08 0 34.54 15.45 34.54 34.54v94.21c0 19.09-15.47 34.54-34.54 34.54h-55.15c-6.43 23-15.55 45.03-27.29 65.88l38.99 38.99c13.49 13.49 13.49 35.35 0 48.84l-66.62 66.62c-13.49 13.49-35.35 13.49-48.84 0L661 776.73c-20.83 11.74-42.86 20.85-65.86 27.29v55.12c0 19.09-15.47 34.54-34.54 34.54z m-59.66-69.08h25.11v-48.1c0-16.73 12.01-31.07 28.49-34 33.16-5.9 64.01-18.69 91.68-37.98 13.75-9.61 32.35-7.93 44.17 3.91l34.04 34.04 17.78-17.78-34.04-34.04c-11.84-11.84-13.49-30.46-3.91-44.19 19.31-27.69 32.1-58.52 38-91.68 2.93-16.46 17.25-28.47 34-28.47h48.12v-25.13h-48.12c-16.75 0-31.07-12.01-34-28.5-5.9-33.12-18.69-63.96-38-91.65-9.58-13.73-7.93-32.35 3.91-44.19l34.04-34.04-17.78-17.78-34.04 34.04c-11.81 11.84-30.48 13.53-44.17 3.91-27.73-19.33-58.57-32.11-91.68-38.02-16.48-2.93-28.49-17.27-28.49-34v-48.1h-25.11v48.1c0 16.73-12.01 31.07-28.49 34-33.11 5.9-63.96 18.69-91.68 38.02-13.71 9.65-32.33 7.89-44.17-3.91l-34.04-34.04-17.78 17.78 34.04 34.04c11.84 11.84 13.49 30.46 3.91 44.19-19.31 27.69-32.1 58.52-38 91.65-2.93 16.49-17.25 28.5-34 28.5h-48.1v25.13h48.1c16.75 0 31.07 12.01 34 28.47 5.9 33.16 18.69 63.99 38 91.68 9.58 13.73 7.93 32.35-3.91 44.19l-34.04 34.04 17.78 17.78 34.04-34.04c11.84-11.84 30.44-13.53 44.17-3.91 27.68 19.29 58.52 32.08 91.68 37.98 16.48 2.93 28.49 17.27 28.49 34v48.1z" p-id="5527" fill="#e50914"></path><path d="M513.51 634.62c-66.65 0-120.89-54.24-120.89-120.89s54.24-120.89 120.89-120.89S634.4 447.07 634.4 513.72s-54.24 120.9-120.89 120.9z m0-172.71c-28.57 0-51.81 23.24-51.81 51.81 0 28.57 23.24 51.81 51.81 51.81s51.81-23.24 51.81-51.81-23.24-51.81-51.81-51.81z" p-id="5528" fill="#e50914"></path></svg>