<?xml version="1.0" standalone="no"?><!DOCTYPE svg PUBLIC "-//W3C//DTD SVG 1.1//EN" "http://www.w3.org/Graphics/SVG/1.1/DTD/svg11.dtd"><svg t="1673712095753" class="icon" viewBox="0 0 1024 1024" version="1.1" xmlns="http://www.w3.org/2000/svg" p-id="10236" xmlns:xlink="http://www.w3.org/1999/xlink" width="20" height="20"><path d="M843.776 40.96H151.552c-36.864 0-65.536 32.768-65.536 69.632v798.72c0 40.96 32.768 69.632 65.536 69.632 12.288 0 24.576-4.096 36.864-12.288l274.432-200.704c12.288-8.192 24.576-12.288 36.864-12.288s24.576 4.096 36.864 12.288l274.432 200.704c12.288 8.192 24.576 12.288 36.864 12.288 32.768 0 65.536-28.672 65.536-69.632V110.592c-8.192-36.864-36.864-69.632-69.632-69.632z m-8.192 864.256L573.44 712.704c-24.576-16.384-49.152-24.576-77.824-24.576s-53.248 8.192-77.824 24.576l-262.144 192.512V110.592h679.936v794.624z" fill="#d81e06" p-id="10237"></path><path d="M700.416 245.76h-409.6c-20.48 0-40.96 20.48-40.96 40.96s20.48 40.96 40.96 40.96h409.6c24.576 0 40.96-20.48 40.96-40.96s-16.384-40.96-40.96-40.96zM700.416 450.56h-409.6c-20.48 0-40.96 20.48-40.96 40.96s20.48 40.96 40.96 40.96h409.6c24.576 0 40.96-20.48 40.96-40.96s-16.384-40.96-40.96-40.96z" fill="#d81e06" p-id="10238"></path></svg>