<?xml version="1.0" standalone="no"?><!DOCTYPE svg PUBLIC "-//W3C//DTD SVG 1.1//EN" "http://www.w3.org/Graphics/SVG/1.1/DTD/svg11.dtd"><svg t="1673712511802" class="icon" viewBox="0 0 1040 1024" version="1.1" xmlns="http://www.w3.org/2000/svg" p-id="16093" xmlns:xlink="http://www.w3.org/1999/xlink" width="18" height="18"><path d="M951.050399 16.708155 73.156228 16.708155c-40.417082 0-73.156228 32.739146-73.156228 73.156228l0 621.842259c0 40.420151 32.739146 73.159297 73.156228 73.159297l182.898753 0 0 219.471753 402.327544-219.471753L951.050399 784.865938c40.421174 0 73.156228-32.739146 73.156228-73.159297L1024.206627 89.864383C1024.206627 49.447301 991.472596 16.708155 951.050399 16.708155L951.050399 16.708155zM256.053958 455.655752c-40.421174 0-73.16032-32.739146-73.16032-73.161343 0-40.383326 32.739146-73.155205 73.16032-73.155205 40.415036 0 73.155205 32.739146 73.155205 73.155205C329.209163 422.916606 296.470018 455.655752 256.053958 455.655752L256.053958 455.655752zM512.103825 455.655752c-40.421174 0-73.156228-32.739146-73.156228-73.161343 0-40.383326 32.734031-73.155205 73.156228-73.155205 40.420151 0 73.159297 32.739146 73.159297 73.155205C585.263122 422.916606 552.523976 455.655752 512.103825 455.655752L512.103825 455.655752zM768.15676 455.655752c-40.420151 0-73.159297-32.739146-73.159297-73.161343 0-40.383326 32.739146-73.155205 73.159297-73.155205 40.421174 0 73.156228 32.739146 73.156228 73.155205C841.312988 422.916606 808.578957 455.655752 768.15676 455.655752L768.15676 455.655752zM768.15676 455.655752" fill="#d81e06" p-id="16094"></path></svg>