<?xml version="1.0" standalone="no"?><!DOCTYPE svg PUBLIC "-//W3C//DTD SVG 1.1//EN" "http://www.w3.org/Graphics/SVG/1.1/DTD/svg11.dtd"><svg t="1666702074632" class="icon" viewBox="0 0 1024 1024" version="1.1" xmlns="http://www.w3.org/2000/svg" p-id="3692" xmlns:xlink="http://www.w3.org/1999/xlink" width="20" height="20"><path d="M517.12 69.12c-244.59264 0-442.88 198.28736-442.88 442.88 0 244.58752 198.28736 442.88 442.88 442.88 244.58752 0 442.88-198.29248 442.88-442.88C960 267.40736 761.70752 69.12 517.12 69.12zM534.96832 773.56032c-9.10848 8.35072-19.73248 12.90752-32.64512 12.90752-12.90752 0-23.53664-4.56192-32.64512-12.90752-9.10848-9.10848-12.90752-19.7376-12.90752-32.65024 0-12.9024 3.79392-23.54176 12.90752-31.88224 9.1136-9.10848 19.7376-12.90752 32.64512-12.90752 12.90752 0 24.2944 3.79904 33.40288 12.90752 8.35072 8.34048 12.90752 18.97984 12.90752 31.88224C548.6336 754.58048 544.08192 765.2096 534.96832 773.56032zM644.3008 469.86752c-7.58784 9.10848-28.09344 28.8512-61.50144 58.46016-16.70144 14.41792-28.08832 28.08832-35.68128 41.75872-9.87136 16.70144-14.42816 34.9184-14.42816 55.41888l0 17.46944L471.95648 642.97472l0-17.46944c0-25.05216 4.5568-47.06816 13.66528-66.048 10.62912-22.77888 35.6864-51.63008 76.68736-88.07424 12.14464-12.14464 21.25824-21.25824 25.80992-27.33056 15.18592-18.97984 22.77376-38.72256 22.77376-59.9808 0-30.36672-9.10336-53.90336-25.80992-70.6048-17.4592-18.22208-42.5216-26.56768-74.40384-26.56768-37.95968 0-66.048 12.14464-84.27008 37.20192-16.70656 21.25824-25.05728 50.10944-25.05728 87.31136L341.36576 411.41248c0-53.1456 14.42816-95.66208 44.79488-127.54432 30.37184-33.408 72.8832-50.11456 127.54944-50.11456 48.59392 0 87.31136 12.90752 116.92544 40.23296 28.08832 25.81504 42.51648 61.50144 42.51648 107.04896C673.152 415.20128 663.28064 444.81024 644.3008 469.86752z" p-id="3693" fill="#e50914"></path></svg>