<?xml version="1.0" standalone="no"?><!DOCTYPE svg PUBLIC "-//W3C//DTD SVG 1.1//EN" "http://www.w3.org/Graphics/SVG/1.1/DTD/svg11.dtd"><svg t="1666765467951" class="icon" viewBox="0 0 1024 1024" version="1.1" xmlns="http://www.w3.org/2000/svg" p-id="8286" xmlns:xlink="http://www.w3.org/1999/xlink" width="20" height="20"><path d="M166.25664 81.92a82.3296 82.3296 0 0 1 79.42144 60.06784L263.168 204.8h575.7952C907.22304 204.8 962.56 259.80928 962.56 327.68c0 7.7824-0.73728 15.5648-2.23232 23.20384L915.78368 581.2224A40.96 40.96 0 0 1 875.56096 614.4H370.688l17.12128 61.44h478.37184a25.8048 25.8048 0 0 1 25.35424 30.72c-3.46112 17.8176-19.06688 30.72-37.23264 30.72H361.41056a40.96 40.96 0 0 1-39.7312-30.9248L187.47392 174.32576A41.1648 41.1648 0 0 0 147.51744 143.36H71.86432A30.80192 30.80192 0 0 1 40.96 112.64C40.96 95.68256 54.80448 81.92 71.86432 81.92h94.4128z" fill="#e50914" p-id="8287"></path><path d="M419.84 870.4m-71.68 0a71.68 71.68 0 1 0 143.36 0 71.68 71.68 0 1 0-143.36 0Z" fill="#e50914" p-id="8288"></path><path d="M808.96 870.4m-71.68 0a71.68 71.68 0 1 0 143.36 0 71.68 71.68 0 1 0-143.36 0Z" fill="#e50914" p-id="8289"></path></svg>